<svg width="20" height="20" viewBox="0 0 20 20" fill="none" xmlns="http://www.w3.org/2000/svg">
<path fill-rule="evenodd" clip-rule="evenodd" d="M0 5.52203C0 2.47719 2.47719 0 5.52203 0H14.478C17.5229 0 20 2.47719 20 5.52203V14.478C20 17.5229 17.5229 20 14.478 20H5.52203C2.47719 20 0 17.5229 0 14.478V5.52203ZM6.02914 10C6.02914 12.1895 7.81048 13.9709 10 13.9709C12.1895 13.9709 13.9709 12.1895 13.9709 10C13.9709 7.81048 12.1895 6.02915 10 6.02915C7.81048 6.02915 6.02914 7.81048 6.02914 10ZM4.74211 10C4.74211 7.10074 7.10074 4.74211 10 4.74211C12.8993 4.74211 15.2579 7.10074 15.2579 10C15.2579 12.8993 12.8993 15.2579 10 15.2579C7.10074 15.2579 4.74211 12.8993 4.74211 10ZM16.4048 2.12093C17.167 2.12093 17.7848 2.73881 17.7848 3.50099C17.7848 4.2632 17.167 4.88107 16.4048 4.88107C15.6426 4.88107 15.0247 4.2632 15.0247 3.50099C15.0247 2.73881 15.6426 2.12093 16.4048 2.12093Z" fill="#690C91"/>
</svg>
